<?xml version="1.0" encoding="utf-8"?>
<!-- Generator: Adobe Illustrator 22.0.1, SVG Export Plug-In . SVG Version: 6.00 Build 0)  -->
<svg version="1.1" id="logo_" xmlns="http://www.w3.org/2000/svg" xmlns:xlink="http://www.w3.org/1999/xlink" x="0px" y="0px"
	 viewBox="0 0 67 65" style="enable-background:new 0 0 67 65;" xml:space="preserve">
<style type="text/css">
	.st0{fill:#FFFFFF;}
</style>
<g id="矩形_10">
	<path class="st0" d="M66,65H1c-0.552,0-1-0.447-1-1V1c0-0.552,0.448-1,1-1h65c0.553,0,1,0.448,1,1v63C67,64.553,66.553,65,66,65z
		 M2,63h63V2H2V63z"/>
</g>
<path class="st0" d="M49.141,47.657c-0.085-0.13-0.169-0.196-0.253-0.196c-0.562,0-1.13-0.057-1.706-0.172
	c-0.575-0.114-0.933-0.236-1.074-0.368c-0.224-0.195-0.428-0.834-0.61-1.913s-0.344-2.42-0.484-4.022
	c-0.14-1.603-0.253-3.36-0.337-5.273c-0.084-1.914-0.126-3.785-0.126-5.617c0-3.695,0.014-6.59,0.042-8.684
	c0.028-2.093,0.105-3.655,0.231-4.685c0.126-1.03,0.31-1.66,0.548-1.889c0.238-0.229,0.555-0.343,0.947-0.343
	c0.112,0,0.273,0.008,0.484,0.024c0.211,0.017,0.429,0.042,0.652,0.074c0.226,0.033,0.429,0.057,0.611,0.073
	c0.183,0.017,0.302,0.025,0.357,0.025c0.057,0,0.092-0.065,0.105-0.196c0.015-0.13,0.021-0.262,0.021-0.393
	c0-0.13-0.014-0.311-0.042-0.54c-0.028-0.229-0.112-0.344-0.253-0.344h-0.548c-0.225,0-0.575,0.009-1.053,0.025
	c-0.478,0.017-1.116,0.033-1.916,0.049c-0.801,0.017-1.846,0.024-3.138,0.024c-1.126,0-2.252-0.019-3.377-0.057
	c-0.255-0.009-0.511,0.004-0.766-0.005c-0.478-0.016-0.828-0.025-1.053-0.025h-0.548c-0.141,0-0.225,0.115-0.253,0.344
	c-0.028,0.229-0.042,0.409-0.042,0.54c0,0.131,0.007,0.262,0.021,0.393c0.014,0.131,0.049,0.196,0.105,0.196
	c0.056,0,0.175-0.008,0.357-0.025c0.183-0.016,0.386-0.041,0.611-0.073c0.224-0.032,0.441-0.057,0.652-0.074
	c0.211-0.016,0.372-0.024,0.484-0.024c0.393,0,0.709,0.115,0.947,0.343c0.238,0.229,0.422,0.859,0.548,1.889
	c0.022,0.179,0.04,0.395,0.073,0.607c0.026,0.42,0.052,0.873,0.09,1.393c0.101,1.355,0.085,3.345,0.085,5.961
	c-0.281-0.327-0.808-0.851-1.58-1.57c-0.771-0.719-1.685-1.447-2.737-2.183c-1.053-0.736-2.196-1.39-3.433-1.963
	c-1.235-0.571-2.471-0.858-3.706-0.858c-1.18,0-2.316,0.254-3.411,0.761c-1.096,0.508-2.064,1.202-2.906,2.085
	c-0.843,0.883-1.517,1.922-2.021,3.115c-0.506,1.194-0.759,2.478-0.759,3.851c0,1.505,0.184,2.943,0.548,4.317
	c0.365,1.374,0.828,2.69,1.39,3.949c0.562,1.26,1.166,2.478,1.812,3.655c0.646,1.177,1.249,2.322,1.811,3.434
	c0.562,1.112,1.025,2.2,1.39,3.263c0.365,1.062,0.548,2.101,0.548,3.115c0,2.658-2.222,1.029-3.426,0.057
	c-2.039-1.645-3.503-3.933-4.63-6.268c-0.122-0.253-0.863-2.04-1.336-1.795c-0.417,0.216,0.221,2,0.304,2.267
	c0.461,1.484,1.139,2.915,1.955,4.236c1.442,2.335,3.767,5.241,6.247,6.523c1.496,0.773,3.424,0.859,4.529-0.581
	c0.238-0.312,0.407-0.638,0.505-0.981c0.099-0.343,0.147-0.63,0.147-0.858c0-0.458-0.147-0.924-0.442-1.398
	c-0.295-0.474-0.674-1.03-1.137-1.668c-0.464-0.638-0.954-1.397-1.475-2.281c-0.519-0.883-1.011-1.953-1.474-3.213
	c-0.464-1.259-0.843-2.747-1.138-4.464c-0.294-1.718-0.441-3.753-0.441-6.108c0-3.695,0.702-6.524,2.105-8.486
	c1.404-1.963,3.215-2.944,5.433-2.944c0.59,0,1.306,0.189,2.148,0.564c0.842,0.377,1.649,0.9,2.422,1.57s1.438,1.472,2,2.403
	c0.562,0.933,0.857,1.955,0.885,3.066c0.028,0.589,0.049,1.275,0.063,2.061c0.014,0.785,0.021,1.619,0.021,2.502v5.396
	c-0.027,1.766-0.084,3.336-0.168,4.709c-0.085,1.374-0.211,2.241-0.38,2.601c-0.224,0.393-0.61,0.621-1.158,0.687
	c-0.547,0.066-1.059,0.099-1.537,0.099c-0.252,0-0.379,0.213-0.379,0.638c0,0.393,0.169,0.588,0.506,0.588
	c0.168,0,0.456-0.008,0.863-0.024s0.856-0.024,1.348-0.024s0.983-0.008,1.474-0.024c0.492-0.017,0.892-0.024,1.2-0.024
	c0.73,0,1.503,0.008,2.316,0.024c0.815,0.017,1.587,0.032,2.316,0.049c0.73,0.017,1.369,0.041,1.917,0.074
	c0.547,0.032,0.905,0.064,1.074,0.098c0.084,0,0.14-0.065,0.168-0.196c0.027-0.13,0.027-0.277,0-0.441
	C49.28,47.936,49.225,47.788,49.141,47.657z"/>
</svg>
