<?xml version="1.0" encoding="utf-8"?>
<!-- Generator: Adobe Illustrator 22.0.1, SVG Export Plug-In . SVG Version: 6.00 Build 0)  -->
<svg version="1.1" id="logo_" xmlns="http://www.w3.org/2000/svg" xmlns:xlink="http://www.w3.org/1999/xlink" x="0px" y="0px"
	 viewBox="0 0 67 65" style="enable-background:new 0 0 67 65;" xml:space="preserve">
<style type="text/css">
	.st0{fill:#475DA9;}
</style>
<g id="矩形_10">
	<path class="st0" d="M66,65H1c-0.6,0-1-0.4-1-1V1c0-0.6,0.4-1,1-1h65c0.6,0,1,0.4,1,1v63C67,64.6,66.6,65,66,65z M2,63h63V2H2V63z"
		/>
</g>
<path class="st0" d="M49.1,47.7c-0.1-0.1-0.2-0.2-0.3-0.2c-0.6,0-1.1-0.1-1.7-0.2c-0.6-0.1-0.9-0.2-1.1-0.4
	c-0.2-0.2-0.4-0.8-0.6-1.9s-0.3-2.4-0.5-4c-0.1-1.6-0.3-3.4-0.3-5.3c-0.1-1.9-0.1-3.8-0.1-5.6c0-3.7,0-6.6,0-8.7
	c0-2.1,0.1-3.7,0.2-4.7c0.1-1,0.3-1.7,0.5-1.9c0.2-0.2,0.6-0.3,0.9-0.3c0.1,0,0.3,0,0.5,0c0.2,0,0.4,0,0.7,0.1
	c0.2,0,0.4,0.1,0.6,0.1c0.2,0,0.3,0,0.4,0c0.1,0,0.1-0.1,0.1-0.2c0-0.1,0-0.3,0-0.4c0-0.1,0-0.3,0-0.5c0-0.2-0.1-0.3-0.3-0.3h-0.5
	c-0.2,0-0.6,0-1.1,0c-0.5,0-1.1,0-1.9,0c-0.8,0-1.8,0-3.1,0c-1.1,0-2.3,0-3.4-0.1c-0.3,0-0.5,0-0.8,0c-0.5,0-0.8,0-1.1,0h-0.5
	c-0.1,0-0.2,0.1-0.3,0.3c0,0.2,0,0.4,0,0.5c0,0.1,0,0.3,0,0.4c0,0.1,0,0.2,0.1,0.2c0.1,0,0.2,0,0.4,0c0.2,0,0.4,0,0.6-0.1
	c0.2,0,0.4-0.1,0.7-0.1c0.2,0,0.4,0,0.5,0c0.4,0,0.7,0.1,0.9,0.3c0.2,0.2,0.4,0.9,0.5,1.9c0,0.2,0,0.4,0.1,0.6
	c0,0.4,0.1,0.9,0.1,1.4c0.1,1.4,0.1,3.3,0.1,6c-0.3-0.3-0.8-0.9-1.6-1.6c-0.8-0.7-1.7-1.4-2.7-2.2c-1.1-0.7-2.2-1.4-3.4-2
	c-1.2-0.6-2.5-0.9-3.7-0.9c-1.2,0-2.3,0.3-3.4,0.8c-1.1,0.5-2.1,1.2-2.9,2.1c-0.8,0.9-1.5,1.9-2,3.1c-0.5,1.2-0.8,2.5-0.8,3.9
	c0,1.5,0.2,2.9,0.5,4.3c0.4,1.4,0.8,2.7,1.4,3.9c0.6,1.3,1.2,2.5,1.8,3.7c0.6,1.2,1.2,2.3,1.8,3.4c0.6,1.1,1,2.2,1.4,3.3
	c0.4,1.1,0.5,2.1,0.5,3.1c0,2.7-2.2,1-3.4,0.1c-2-1.6-3.5-3.9-4.6-6.3c-0.1-0.3-0.9-2-1.3-1.8c-0.4,0.2,0.2,2,0.3,2.3
	c0.5,1.5,1.1,2.9,2,4.2c1.4,2.3,3.8,5.2,6.2,6.5c1.5,0.8,3.4,0.9,4.5-0.6c0.2-0.3,0.4-0.6,0.5-1c0.1-0.3,0.1-0.6,0.1-0.9
	c0-0.5-0.1-0.9-0.4-1.4c-0.3-0.5-0.7-1-1.1-1.7c-0.5-0.6-1-1.4-1.5-2.3c-0.5-0.9-1-2-1.5-3.2c-0.5-1.3-0.8-2.7-1.1-4.5
	c-0.3-1.7-0.4-3.8-0.4-6.1c0-3.7,0.7-6.5,2.1-8.5c1.4-2,3.2-2.9,5.4-2.9c0.6,0,1.3,0.2,2.1,0.6c0.8,0.4,1.6,0.9,2.4,1.6
	s1.4,1.5,2,2.4c0.6,0.9,0.9,2,0.9,3.1c0,0.6,0,1.3,0.1,2.1c0,0.8,0,1.6,0,2.5v5.4c0,1.8-0.1,3.3-0.2,4.7c-0.1,1.4-0.2,2.2-0.4,2.6
	C39,47,38.6,47.2,38,47.3c-0.5,0.1-1.1,0.1-1.5,0.1c-0.3,0-0.4,0.2-0.4,0.6c0,0.4,0.2,0.6,0.5,0.6c0.2,0,0.5,0,0.9,0s0.9,0,1.3,0
	s1,0,1.5,0c0.5,0,0.9,0,1.2,0c0.7,0,1.5,0,2.3,0c0.8,0,1.6,0,2.3,0c0.7,0,1.4,0,1.9,0.1c0.5,0,0.9,0.1,1.1,0.1
	c0.1,0,0.1-0.1,0.2-0.2c0-0.1,0-0.3,0-0.4C49.3,47.9,49.2,47.8,49.1,47.7z"/>
</svg>
